/* XPM */
static char *da4898a70a624b2ee384709ae47721906qzgH5ceGXK3tt2S[] = {
/* columns rows colors chars-per-pixel */
"16 16 190 2 ",
"   c None",
".  c #AE7F68",
"X  c #B37F6C",
"o  c #B77C75",
"O  c #C17379",
"+  c #C2737B",
"@  c #73A037",
"#  c #75A23C",
"$  c #78A03B",
"%  c #7CA33D",
"&  c #7EA53F",
"*  c #709052",
"=  c #7C8F70",
"-  c #7F9472",
";  c #889748",
":  c #8B984A",
">  c #919C4D",
",  c #9B8B57",
"<  c #9F8B5B",
"1  c #89B343",
"2  c #9CA553",
"3  c #A7B35B",
"4  c #A78E61",
"5  c #B29667",
"6  c #B4976A",
"7  c #AE8079",
"8  c #B0837A",
"9  c #90B670",
"0  c #B9AB67",
"q  c #B6B064",
"w  c #B7B465",
"e  c #B6B864",
"r  c #BBBB69",
"t  c #C18576",
"y  c #C78D7F",
"u  c #C89B73",
"i  c #C99B74",
"p  c #C99A75",
"a  c #C89E74",
"s  c #CB9D76",
"d  c #C3BF70",
"f  c #B0C95F",
"g  c #B7D566",
"h  c #BAD769",
"j  c #7B7E88",
"k  c #687D95",
"l  c #7A7C9F",
"z  c #89789B",
"x  c #9B7597",
"c  c #907A9D",
"v  c #A37489",
"b  c #AB7192",
"n  c #BF7799",
"m  c #C36D88",
"M  c #C87A98",
"N  c #DD7A92",
"B  c #398AAF",
"V  c #3A8AAF",
"C  c #2B8FB6",
"Z  c #318DB3",
"A  c #2D91B8",
"S  c #3990B8",
"D  c #4786AB",
"F  c #4987AC",
"G  c #5784A6",
"H  c #5284A8",
"J  c #5185AA",
"K  c #488FB7",
"L  c #528BB4",
"P  c #5292B6",
"I  c #6181A5",
"U  c #6781A6",
"Y  c #6B86AB",
"T  c #708EAC",
"R  c #658AB4",
"E  c #2D9BC5",
"W  c #339EC8",
"Q  c #39A3CD",
"!  c #31A4D2",
"~  c #3EB1DF",
"^  c #479CC4",
"/  c #6C9DCB",
"(  c #7899C7",
")  c #719BC9",
"_  c #5CB1DF",
"`  c #73AFD8",
"'  c #4BBEED",
"]  c #52BEEB",
"[  c #59BCEA",
"{  c #68C6F2",
"}  c #77CBF6",
"|  c #9C8690",
" . c #9B9597",
".. c #98999B",
"X. c #9D9898",
"o. c #9E9E9F",
"O. c #BD838E",
"+. c #B28F8A",
"@. c #8785A7",
"#. c #888BA2",
"$. c #9882A4",
"%. c #8D9CAA",
"&. c #9E9FA1",
"*. c #9B91B6",
"=. c #9094BF",
"-. c #A688B2",
";. c #9DA0A7",
":. c #A2A2A2",
">. c #AFA4AF",
",. c #ACACAD",
"<. c #BFA6AB",
"1. c #B0A3B2",
"2. c #B5B3B3",
"3. c #B7B7B7",
"4. c #BCBBBB",
"5. c #CD8D82",
"6. c #D48581",
"7. c #D48781",
"8. c #DE8A99",
"9. c #E98496",
"0. c #E08799",
"q. c #D1B482",
"w. c #D6B581",
"e. c #D2BC91",
"r. c #ECAC96",
"t. c #EBA99D",
"y. c #C883A7",
"u. c #D58FAE",
"i. c #C790B1",
"p. c #CD94BD",
"a. c #E688AD",
"s. c #F399AF",
"d. c #F897B9",
"f. c #FAA2AB",
"g. c #F0BCAD",
"h. c #ADC694",
"j. c #8795C2",
"k. c #8F9AC5",
"l. c #9C9DC9",
"z. c #B29BC7",
"x. c #88A9C8",
"c. c #B6AAC1",
"v. c #B3BEDB",
"b. c #E297C1",
"n. c #C2BFC1",
"m. c #E5B4CC",
"M. c #F5B5C2",
"N. c #98C9EB",
"B. c #85CBF3",
"V. c #C0C0C1",
"C. c gray78",
"Z. c #C8C8C8",
"A. c #C8C8CA",
"S. c #CACACA",
"D. c #CDCDCD",
"F. c gray81",
"G. c #CDCED4",
"H. c #D5D5D5",
"J. c gainsboro",
"K. c #DFDDDF",
"L. c gray87",
"P. c #E1E3D7",
"I. c gray89",
"U. c #E4E4E6",
"Y. c #E6E6E6",
"T. c #EBE9EA",
"R. c #EAEAEA",
"E. c #ECE9EA",
"W. c #EAECED",
"Q. c #ECECEC",
"!. c gray93",
"~. c #EFEFEF",
"^. c #EAF3F9",
"/. c #ECF3F9",
"(. c gray95",
"). c #F5F2F2",
"_. c #F4F4F4",
"`. c gray96",
"'. c gray97",
"]. c #FAF8F7",
"[. c #F1F6FB",
"{. c #F5F8FA",
"}. c #F7F9FB",
"|. c gray98",
" X c #FBFBFB",
".X c #FCFDFC",
"XX c #FCFCFD",
"oX c #FDFDFD",
"OX c #FEFEFE",
"+X c white",
/* pixels */
"          p.d.f.r.w.d           ",
"      k.l.z.p.a.9.t 4 e h       ",
"    =.( ) ( %.-.v X.+.a r g     ",
"  1.@.R L G k U :.4.5.N s e f   ",
"  ~.c.:.o.:.,.3.A.H.n.| o i q   ",
"  |.I.D.S.F.H.J.U._.K.#.X.7 u 0 ",
"+X+X_.R.R.!.(.'..X+X_.D.C.2.8 i ",
"+X+X+X+X.X.X}./.^.[.{.W.U.L.<.7.",
"+X+X+X|.E.G.x._ [ { } B.N.v.i.N ",
"+X+X+X].).R.A.%.P ! ~ ' ] ` *.n ",
"  +XP.e.g.M.m.c.;.K E W Q ^ Y c ",
"  +Xh.3 q.t.s.y.>.T S A C Z J   ",
"    9 1 2 6 5.0.u.$.U F B B D   ",
"    - * & > 4 y 8.M x l I J     ",
"      = # % : < X O m b z       ",
"          @ $ ; , X O           "
};
