/* XPM */
static char *_7dcc4dd59f64546fcfe70e2e46a11981uf28OFdwBHds3KE[] = {
/* columns rows colors chars-per-pixel */
"64 64 247 2 ",
"   c None",
".  c #466135",
"X  c #394E68",
"o  c #365977",
"O  c #3F4C5D",
"+  c #4B5359",
"@  c #695A5B",
"#  c #6E4A52",
"$  c #525769",
"%  c #6A586C",
"&  c #57636E",
"*  c #6A6467",
"=  c #7C7C7D",
"-  c #757475",
";  c #6C6D73",
":  c #647154",
">  c #914C55",
",  c #A65959",
"<  c #8D7374",
"1  c #B47C6C",
"2  c #BB7773",
"3  c #B0706E",
"4  c #A9625B",
"5  c #C3727A",
"6  c #D37877",
"7  c #C86F74",
"8  c #C3546F",
"9  c #598A2E",
"0  c #699835",
"q  c #749B3A",
"w  c #76A339",
"e  c #79A43B",
"r  c #78A83A",
"t  c #73AB39",
"y  c #6F974F",
"u  c #78A445",
"i  c #84B73E",
"p  c #81AB3E",
"a  c #849D43",
"s  c #8B9849",
"d  c #91974E",
"f  c #9C8C57",
"g  c #979553",
"h  c #8E8D4D",
"j  c #A2885D",
"k  c #A4975B",
"l  c #B6825E",
"z  c #89A745",
"x  c #94A94C",
"c  c #8AB743",
"v  c #96B64B",
"b  c #9DAB52",
"n  c #A7AA5A",
"m  c #ACB65B",
"M  c #B0B65F",
"N  c #AA8564",
"B  c #B48A6C",
"V  c #B8916B",
"C  c #B4AE62",
"Z  c #B9AB66",
"A  c #BEA66B",
"S  c #BBA769",
"D  c #B5B564",
"F  c #B5A670",
"G  c #89A768",
"H  c #C78B7C",
"J  c #D5857A",
"K  c #CB9D76",
"L  c #CB9878",
"P  c #D2997C",
"I  c #D6927E",
"U  c #C49F6E",
"Y  c #C1A56E",
"T  c #C5A271",
"R  c #CAA577",
"E  c #CABA79",
"W  c #D0B47C",
"Q  c #AECA5D",
"!  c #B7C765",
"~  c #B9D868",
"^  c #B6E266",
"/  c #C6D074",
"(  c #325E84",
")  c #2E6C98",
"_  c #2B79AA",
"`  c #4C658D",
"'  c #7A7B9E",
"]  c #6F7593",
"[  c #6B7EA3",
"{  c #767DA1",
"}  c #616C99",
"|  c #88799C",
" . c #987698",
".. c #8C7190",
"X. c #BA6C8D",
"o. c #A87395",
"O. c #B57698",
"+. c #AB6D8D",
"@. c #887AA3",
"#. c #A77199",
"$. c #CD6B84",
"%. c #C86A8A",
"&. c #D97989",
"*. c #C67699",
"=. c #D9779A",
"-. c #CD6F86",
";. c #E67896",
":. c #E7748C",
">. c #CD7EA4",
",. c #F07EA4",
"<. c #D55E86",
"1. c #3C89AE",
"2. c #378AAF",
"3. c #2B8EB4",
"4. c #278ABD",
"5. c #338CB1",
"6. c #3B8BB6",
"7. c #2C93BB",
"8. c #2B90B7",
"9. c #3693BA",
"0. c #4B86AA",
"q. c #4487AC",
"w. c #5284A9",
"e. c #5983A8",
"r. c #4B8CB4",
"t. c #6381A5",
"y. c #6B83A8",
"u. c #6B8BB6",
"i. c #7F8080",
"p. c #2C99C4",
"a. c #2D9CCA",
"s. c #2B96C3",
"d. c #3599C6",
"f. c #2EA1CE",
"g. c #2EA4D4",
"h. c #2FA7D9",
"j. c #32AADB",
"k. c #38A7D5",
"l. c #32A1CC",
"z. c #3AB3E5",
"x. c #4F98CA",
"c. c #649ECC",
"v. c #6B9CCA",
"b. c #7B99C6",
"n. c #759AC7",
"m. c #678EC4",
"M. c #5BA1CF",
"N. c #49A4D3",
"B. c #52A3D2",
"V. c #45B2DD",
"C. c #4FABD5",
"Z. c #72AAD5",
"A. c #47BAE8",
"S. c #56BCE9",
"D. c #6CBAE8",
"F. c #4EC0ED",
"G. c #4DC4F5",
"H. c #50C4F5",
"J. c #51C9FB",
"K. c #55C5F8",
"L. c #50C1EF",
"P. c #76C9F6",
"I. c #6AC7F7",
"U. c #838383",
"Y. c #8C8C8C",
"T. c #878788",
"R. c #939394",
"E. c #9B9B9C",
"W. c #97989A",
"Q. c #8F8C8D",
"!. c #B19295",
"~. c #988AB6",
"^. c #8793BD",
"/. c #9993BE",
"(. c #9291AF",
"). c #A88CB7",
"_. c #B88CB4",
"`. c #AD8EB2",
"'. c #9FA0A1",
"]. c #A4A4A4",
"[. c #ABABAB",
"{. c #A8A7AA",
"}. c #B4B4B4",
"|. c #BBBBBC",
" X c #B6B8B6",
".X c #AEAEB1",
"XX c #A2AF9B",
"oX c #D88886",
"OX c #D89384",
"+X c #D58D8E",
"@X c #E4878B",
"#X c #E68797",
"$X c #ED8D99",
"%X c #D8B385",
"&X c #EAAA98",
"*X c #E9B996",
"=X c #EEB296",
"-X c #C785A9",
";X c #D785AA",
":X c #CC90B5",
">X c #E886A7",
",X c #F48DAB",
"<X c #F897A8",
"1X c #FA99BA",
"2X c #ED90B0",
"3X c #CDBBB0",
"4X c #F9AAA9",
"5X c #F8B2A4",
"6X c #FAA5B5",
"7X c #E7BDAC",
"8X c #DBC587",
"9X c #E5C191",
"0X c #8797C4",
"qX c #9699C4",
"wX c #A79BC6",
"eX c #BB9CC6",
"rX c #99A2CB",
"tX c #8AA9D2",
"yX c #B3ADCD",
"uX c #8FB8E2",
"iX c #C89AC6",
"pX c #D99AC4",
"aX c #F79BC3",
"sX c #E89BC5",
"dX c #CDABC9",
"fX c #EFA4C7",
"gX c #8BC8ED",
"hX c #B0D1E8",
"jX c #B9C4CF",
"kX c #C4C4C4",
"lX c #CCCCCC",
"zX c #C8C6C9",
"xX c #D3D3D3",
"cX c #DBDBDB",
"vX c #D8D8D8",
"bX c #D1CFD7",
"nX c #E7D1D5",
"mX c #CCDAE6",
"MX c #E4E4E4",
"NX c #ECECEC",
"BX c #E7E7E8",
"VX c #F4F4F3",
"CX c #FEFEFE",
"ZX c #F7F7F8",
"AX c #ECEFF1",
"SX c #E2E1E2",
"DX c #BDC6B8",
/* pixels */
"                                                    1X<X<X4X=X&X=X=X*X9XW /                                                     ",
"                                            aX,XaX,X,X1X6X6X4X5X5X=X=X9X9X8X/ 9XE /                                             ",
"                                        pXpXsXsXaX1X1X1X6X6X6X6X5X5X=X=X=XW W W / / / /                                         ",
"                                  dXeXiXiXpXsXsXaXaXaXaX1X1X<X1X$X$XOXI P P K W A Z D D / / ~                                   ",
"                                wXwXwXeXeXiXiXpXsXsXaXaXaX,X,X,.$X$X@X@XI I P P U A Z C M M / ^                                 ",
"                            qXqXqXrXwXwXyXeXeXiXiXpXpXpX,.,.,.,.:.$X$X@XI I I P U U A Z M m Q ! / ^                             ",
"                          0X0XqXrXrXrXrXrXwXwXwX)._.-X>.>.>.,.,.,X,.,.:.J J 7 4 1 l U U A C M M / ^ ^                           ",
"                      qX^.b.0X0X0XtX0XtX0XqXqXqXqX).wX_.iX>.pX,.,.,.,.:., # # : @ . > V Y S C M Q / ^ ^ ^                       ",
"                    qX^.0Xb.b.b.n.n.n.b.n.0X0X0XqXqX~.)._._.>.>.;.,.<.> * < Y.Y.Y.T.* l U Y Y C D ! / ~ ^ ^                     ",
"                  wX^.^.0Xb.n.n.n.v.n.v.v.n.n.b.0X0XqXqXwX).wXiX-XX.# * T.R.E.'.].'.< l P R Y Y C D ! / ~ ^ ^                   ",
"                wX~.^.0Xb.n.n.v.c.c.c.c.c.c.c.v.m.b.0X0X0X~.qX#.#.# ; ..R.].{.[..X[.2 J I P K R A Z D ! ~ ~ Q ^                 ",
"              eX~./.0X0Xb.n.v.c.c.M.M.M.M.M.M.c.c.m.b.m.b.^.~.' $ * U.W.].[.[.}. X!.6 @XI P P R Y A Z C D ! ~ ~ ^               ",
"              #.).qX0X0Xb.n.v.c.c.M.B.N.N.x.B.x.x.x.m.[ } ) $ + % = R.'.[.}. XDX|.-.:.@X@X@XP P R T Y Z C m ! ~ ~               ",
"            ..#.#.~.0X0Xb.n.v.M.x.x.N.N.x.x.d._ ) ( o X + @ * ; ] Q.'.[.}.|.kXkX}.$.:.:.@X@X@XI P K Y A Z C m Q Q ~             ",
"            W.% ` } } { [ r.m.x.x.6.5.) ( o O + $ & ; ; = = U.T.Q.E.[.}.yXkXlXkX+.> > 8 :.:.I @XOXP K T Y Z M m Q Q Q           ",
"          NXvX}. .< $ $ $ X X X X X + $ * & - ] G ..T.T.Q.R.W.E.XX{.}.3XkXlXxX[.@ R. .* > 8 6 @X@XOXP K T Y Z C M Q !           ",
"          ZXBXxX|.{.E.R.T.y = - = = G ] ..G ..R.R.R.E.E.'.].].{..X XDXkXlXxXlX..]. X[.W...% # 8 J @XI P K T Y Z C m m Q         ",
"        CXCXVXcXlXkX}.{.'.).R.R.R.Q.R.R.R.E.E.'.].XX{.{.[.[.}.}.|.DXzXlXxXcXkX|.zXkXkX}.E.Q.- # > 6 I I P K T Y Z C m m Q       ",
"        CXZXVXMXvXlXkX|..X[.{.].'.'.].].].{.{..X}.}. X X|.|.DXkXkXlXxXxXcXSXSXcXcXvXlXdX{.!.Q.G * > 8 J I P K T Y C C m m       ",
"      CXCXCXZXNXMXvXlXkXyX X}.[.[.[.[..X}.}.}.|.yX|.DXkXkXzXlXlXlXxXxXcXSXMXNXBXMXSXxX'.tXeXO.T.T.- # 4 6 I P K T Y Z C m       ",
"      CXCXCXZXVXBXMXvXxXzXDX|.|.|.|.DXyX3XjXkXkXkXzXzXzXlXlXlXxXxXvXcXMXBXNXVXVXAXNXDX+.m.x.~.8 Q.R.= @ , 6 I K K T S Z C M     ",
"    CXCXCXCXZXVXVXMXcXxXxXlXzXzXkXkXzXzXzXlXlXlXxXlXxXvXvXvXvXvXcXSXMXBXNXVXVXZXVXVXxX< ] r.d...< XXE.T.@ > 6 I P K T S C C     ",
"    CXCXCXCXCXVXVXMXMXcXxXxXlXlXlXlXlXlXxXxXxXxXvXvXvXcXcXSXSXSXMXBXBXNXVXZXZXCXZXZXNXDX..$ X ` ; [.[.'.Y.* > 6 I P K T A Z C   ",
"    CXCXCXCXCXZXVXNXMXcXvXvXvXxXvXvXvXvXxXvXcXcXcXSXSXMXMXMXBXNXNXNXVXZXZXZXCXCXZXZXVXcX}.E.| y Q.}.3X.X].Y.* , 6 I P R T A C   ",
"  CXCXCXCXCXCXZXZXVXBXBXMXMXcXSXcXcXcXSXSXSXSXMXMXBXBXNXNXNXVXVXVXVXZXZXCXCXCXCXCXZXVXMXlX}.{.'.]. XkX|.}.{.Q.* , 6 I L K Y S   ",
"  CXCXCXCXCXCXZXZXZXVXNXBXBXBXBXBXBXBXBXMXBXNXNXNXVXVXVXVXVXVXZXZXCXZXCXCXCXCXCXCXZXVXBXvXlX|. X XkXzXkX3X X{.Q.@ , J I L K T   ",
"  CXCXCXCXCXCXCXCXZXVXVXVXVXVXVXNXVXNXVXVXVXVXVXVXVXVXZXZXCXZXCXCXCXCXCXCXCXCXCXCXCXZXAXMXvXlXkXkXlXxXxXlXkX X{.Y.@ , J I L K T ",
"  CXCXCXCXCXCXCXCXCXCXZXZXVXVXVXVXVXVXVXZXZXZXZXCXZXCXCXCXCXCXCXCXCXCXCXCXCXCXCXCXCXZXVXNXMXSXxXxXxXvXvXvXbXkX|.{.Y.@ 4 J I L U ",
"  CXCXCXCXCXCXCXCXCXCXCXCXZXCXZXCXZXCXZXCXCXCXCXCXCXCXCXCXCXCXCXCXCXCXCXCXCXCXCXCXCXCXVXVXNXMXSXcXSXcXSXSXvXxXzX|.{.Y.> 6 OXI L ",
"  CXCXCXCXCXCXCXCXCXCXCXCXCXCXCXCXCXCXCXCXCXCXCXCXCXCXCXCXCXCXCXCXCXCXCXCXCXCXCXCXCXZXCXZXNXNXBXBXMXMXBXMXSXvXxXzX XXX< 7 J I H ",
"  CXCXCXCXCXCXCXCXCXCXCXCXCXCXCXCXCXCXCXCXCXCXCXCXCXCXCXCXCXCXCXCXCXCXCXCXCXCXCXCXCXCXCXZXVXNXNXBXBXNXNXAXNXMXcXxXkX}.5 :.oXoXH ",
"CXCXCXCXCXCXCXCXCXCXCXCXCXCXCXCXCXCXCXCXCXCXCXCXCXCXVXAXmXmXhXhXhXhXhXhXhXmXMXAXAXZXVXCXZXVXNXNXNXNXNXAXAXAXAXMXcX3X-X;.:.@XoXJ ",
"CXCXCXCXCXCXCXCXCXCXCXCXCXCXCXCXCXCXCXCXCXZXCXAXmXhXuXuXP.P.I.K.K.I.I.I.P.P.gXP.gXgXhXhXhXhXhXmXbXmXSXBXBXAXBXcXdX:X>X;.;.;.&.oX",
"  CXCXCXCXCXCXCXCXCXCXCXCXCXCXCXCXCXCXVXBXbX.Xb.0Xc.N.k.k.z.z.z.z.G.J.J.J.J.J.J.J.J.K.K.I.P.P.P.P.uXuXuXhXyXyXyX_.:X>.=.;.;.&.&.",
"  CXCXCXCXCXCXCXCXCXCXCXCXCXVXMXcXnX3X`.Q.] Y.; ` _ x.x.k.j.h.h.j.z.z.z.G.G.J.J.J.J.J.J.H.J.G.H.K.S.D.D.uXtXrXwX.X:X-X>.=.;.&.&.",
"  CXCXCXCXCXCXCXCXCXCXCXCXCXVXMXSXSXcXvXcXcXcXzXR.] ` _ d.h.h.h.j.j.h.h.j.z.F.J.G.J.J.J.J.H.J.G.K.H.I.D.D.uXtX/.wX)._.-X=.=.;.&.",
"  CXCXCXCXCXCXCXCXCXCXCXCXCXCXCXZXZXVXNXNXBXMXSXlX}.E.- $ ) 4.a.g.h.h.h.h.g.h.j.A.G.G.G.H.H.H.H.G.H.L.D.D.D.tXtXwX).`._.>.>.=.:.",
"  CXCXCXCXCXCXCXCXCXCXCXCXCXCXCXZXZXZXZXVXVXNXNXSXxXdX.XE.= & ( _ s.f.g.g.g.g.g.k.j.F.F.H.H.H.L.G.S.L.L.I.Z.tXtXrX/.).`.O.O.*.<.",
"  CXCXCXCXCXCXCXCXCXCXCXCXCXCXCXCXCXZXZXVXVXVXNXBXcXlXkX X[.E.T.& o _ p.f.f.g.g.f.f.g.A.F.F.L.L.A.H.S.S.D.D.Z.Z.0X^.(. .#.O.*.  ",
"  CXCXCXCXCXCXCXCXCXCXCXZXVXNXVXVXZXZXZXVXVXVXNXNXMXcXxXzXDX}.{.E.i.& ) p.f.f.f.f.f.l.f.k.V.A.A.A.A.A.A.V.C.Z.v.n.^.(. .~.o.O.  ",
"    CXCXCXCXCXCXCXCXCXSX3X9X9X7X7X7XnXnXfXnXMXBXMXMXSXvXxXzXyXDX}.].R.& _ s.a.a.f.a.p.a.p.g.V.V.V.V.V.V.V.C.M.c.u.u.y.(. . .o.  ",
"    CXCXCXCXCXCXCXCXBXF F E %X*X=X4X5X6X4X6XaXaXfXfXdXdXyXyXyX.X[.}..XY.o 4.p.a.p.a.p.p.p.l.l.l.k.k.l.C.k.N.B.r.r.y.y.Y.|  .o.  ",
"    CXCXCXCXCXCXCXCX.Xm n Y 8X*X*X5X5X5X6X6X6X1XaXaXsXdXdXyXwX0X` .X X[.] _ s.p.p.p.p.p.p.7.7.l.9.l.l.p.9.d.9.r.r.e.y.y.y.|     ",
"      CXCXCXCXCXCXMXG v n C E 8X9X9X5X5X5X4X6X1XaXaXsXsXdXeX/.{ &  XjX XQ.) s.s.p.p.s.s.p.7.7.7.7.7.7.7.7.7.9.6.r.e.t.y.| |     ",
"      CXCXCXCXCXCXDXc v n m M 8X8X*X*X=X5X4X6X6X1X1XaXaXpX:X).@.%  XzXdX'.) 9.d.7.7.7.7.7.7.7.8.8.8.8.8.3.3.3.1.q.w.e.[ y.      ",
"      CXCXCXCXCXZXy u v v b n F %X8X*X*X=X5X4X4X4X1X1X1X2X-XO.@.% {.lXlX[.` q.r.7.7.7.7.7.7.8.8.8.8.8.8.3.3.3.2.q.0.w.[ '       ",
"        CXCXCXCXSXt i v v b n m D F %X%X%X&X&X4X4X1X,X,X,.>.*.O...(.zXlX[.` r.r.r.9.9.8.7.8.8.8.8.8.8.8.3.3.5.2.1.0.w.e.t.      ",
"        CXCXCXCXDXt i c c v v b n C F F K %X&X&X&X$X<X>X;.=.=.-XO. ..XzX'.} t.e.r.q.1.9.5.8.8.8.3.3.3.3.3.3.5.2.1.q.w.e.        ",
"          CXCXCXXXt i c i c v v b n k k V V K OX%X+X+X#X;.;.=.;X;X_._..X).{ { [ e.w.0.q.2.2.2.3.3.3.3.3.3.3.2.2.1.0.w.          ",
"            CXCXXXt i c i c c v x b n k k V V H +XOXoXoX+X#X>X>X>X;X:X`.`.@.{ { y.t.w.0.0.q.2.2.3.5.5.3.5.2.2.2.1.0.0.          ",
"            CXCXXXt t i i i i i z x x k n k V B B oXH oXoX#X#X>X2X2X2X:X`.o.@.@.' y.[ e.w.w.0.1.1.1.2.2.2.2.2.1.q.0.            ",
"              CX}.9 t i i i i i c z x d g k k k N B B B +X+X$X2X,X2X2X;X-X`.R.| | ' [ [ [ e.e.0.0.q.q.1.q.1.q.q.q.              ",
"                lX9 0 r p r p r p c z z x g f k k B V V +X+X+X&X$X2X2X>X;X-Xo.o. ...' ' y.[ t.e.w.w.w.0.0.0.q.0.0.              ",
"                  T.. 9 9 0 0 t r r z z s x g g k j N B V +XOX;X&X>X$X>X>X;X*.o. . .| | ' [ [ [ t.e.e.e.w.0.w.w.                ",
"                    U.* + + . . 0 r r z z s s d g f j N N V +X+X+X+X$X>X#X=.*.X.+.o. . .| | ' [ i.t.t.t.t.e.w.                  ",
"                      Q.T.G - : 0 e r r e z s d d f f f j N N B +X2 oXoX&.-.-.%.X.+.+. . ...| | y.y.t.t.t.t.                    ",
"                        W.W.Q.: 0 w r r e e a a s d g f j j j 1 1 1 2 X.5 $.$.$.%.%.+.o.o. . .| | ' ' ' [                       ",
"                          R.Y.y w w r r e e e a a s h g f j j j N 1 1 2 2 5 5 $.$.%.%.X.+.o. . . .| |                           ",
"                            y u w w e e r e r e a a s d d f f j j 1 1 1 2 2 5 5 $.$.-.%.%.+.o.o. . .                            ",
"                                0 q w w w e w e e a a s h d f f j N j 1 1 2 2 5 5 $.$.<.%.%.X.X.                                ",
"                                  0 0 w w r e e w e a a s s h f f f 1 j N 1 2 2 2 5 5 $.$.%.%.                                  ",
"                                        0 0 w w w e w p a s s g f f h 1 N 1 1 1 2 5 5 5                                         ",
"                                            0 0 q w q w a a s s h g f f f 1 N 1 1 2                                             ",
"                                                    0 0 0 q q y s h h f f f                                                     "
};
