/* XPM */
static char *_fe8a78f9eb640faca0c5cf2e43dd5739xMh5airzOoMnh5d[] = {
/* columns rows colors chars-per-pixel */
"32 32 211 2 ",
"   c None",
".  c #5F6F55",
"X  c #55687C",
"o  c #626672",
"O  c #7A7B7C",
"+  c #776B75",
"@  c #94715D",
"#  c #9D5D70",
"$  c #976664",
"%  c #906D73",
"&  c #A66966",
"*  c #AA7D68",
"=  c #B37D6C",
"-  c #BC7774",
";  c #B76B6C",
":  c #C66C7A",
">  c #C57379",
",  c #D27F7B",
"<  c #6D9B38",
"1  c #759E3A",
"2  c #75A33A",
"3  c #79A53A",
"4  c #7AA73B",
"5  c #6D974D",
"6  c #7FA040",
"7  c #7A8D6F",
"8  c #83B63E",
"9  c #8B994A",
"0  c #859945",
"q  c #9C8B59",
"w  c #979353",
"e  c #939E4E",
"r  c #A48A5E",
"t  c #A49C5B",
"y  c #89A645",
"u  c #87B841",
"i  c #93B44B",
"p  c #9AA552",
"a  c #A9B75A",
"s  c #A2AE56",
"d  c #A98463",
"f  c #B48B6A",
"g  c #B09465",
"h  c #BFA76B",
"j  c #B7AC65",
"k  c #B4B362",
"l  c #BBB36C",
"z  c #A7B27C",
"x  c #C7867C",
"c  c #D28D7A",
"v  c #CB9D76",
"b  c #C99977",
"n  c #D4927D",
"m  c #C1A46D",
"M  c #CAAD79",
"N  c #C2B76F",
"B  c #AFC75E",
"V  c #B8C966",
"C  c #B8D567",
"Z  c #BBE16A",
"A  c #3E7DA4",
"S  c #4B749B",
"D  c #536D8D",
"F  c #687F96",
"G  c #7B7B9E",
"H  c #727388",
"J  c #417FA7",
"K  c #727EA2",
"L  c #677FA3",
"P  c #86799C",
"I  c #977799",
"U  c #8E7A80",
"Y  c #A87696",
"T  c #B57496",
"R  c #B86E8E",
"E  c #877DA4",
"W  c #A079A2",
"Q  c #CB6C84",
"!  c #C56D8C",
"~  c #DC7B8B",
"^  c #DA7897",
"/  c #C3799C",
"(  c #E47B8A",
")  c #E87A93",
"_  c #C879A0",
"`  c #DC7DA1",
"'  c #F27FA3",
"]  c #3988AE",
"[  c #2C8EB4",
"{  c #358CB2",
"}  c #3C8CB7",
"|  c #2B93BB",
" . c #2B90B7",
".. c #3694BC",
"X. c #748293",
"o. c #4B85AC",
"O. c #4188AD",
"+. c #4587AC",
"@. c #5B82A6",
"#. c #5385AA",
"$. c #468AB4",
"%. c #6581A5",
"&. c #7D87A3",
"*. c #678AB5",
"=. c #2D96C2",
"-. c #2D99C3",
";. c #2D9DCA",
":. c #309BC5",
">. c #349FD1",
",. c #2EA1CF",
"<. c #2FA5D4",
"1. c #35A9D8",
"2. c #38B1E1",
"3. c #4899C9",
"4. c #5A9ECB",
"5. c #689DCB",
"6. c #7899C7",
"7. c #42ACD6",
"8. c #5FA0CE",
"9. c #76AFD8",
"0. c #47BAE8",
"q. c #5CBAE7",
"w. c #69BBEA",
"e. c #71B7E2",
"r. c #4DC3F3",
"t. c #52C4F5",
"y. c #54C7F8",
"u. c #58C0ED",
"i. c #68CAF8",
"p. c #79CBF6",
"a. c #868585",
"s. c #8B898A",
"d. c #958889",
"f. c #948F95",
"g. c #939393",
"h. c #9A9A9B",
"j. c #8E9092",
"k. c #95AB88",
"l. c #9584AA",
"z. c #999AA0",
"x. c #9891BB",
"c. c #8F8DB2",
"v. c #A898B9",
"b. c #B794B7",
"n. c #B48AB1",
"m. c #9FA0A1",
"M. c #A2A2A4",
"N. c #ACACAD",
"B. c #ABA8A8",
"V. c #B4B4B5",
"C. c #BBBBBB",
"Z. c #B4B6BD",
"A. c #B4ADB2",
"S. c #D88888",
"D. c #D89483",
"F. c #D08F93",
"G. c #E48C8C",
"H. c #E98699",
"J. c #D8AA86",
"K. c #D9BE87",
"L. c #CEBA95",
"P. c #E8BB98",
"I. c #ECA998",
"U. c #D387A9",
"Y. c #C988B1",
"T. c #D790B3",
"R. c #C891B2",
"E. c #E888A9",
"W. c #F489A5",
"Q. c #FA9ABA",
"!. c #F093B1",
"~. c #F9A5A9",
"^. c #F5B2A3",
"/. c #F0BAB4",
"(. c #AAC29D",
"). c #DBC686",
"_. c #8A95C1",
"`. c #869AC5",
"'. c #9A9DC8",
"]. c #A69AC6",
"[. c #BC9ECA",
"{. c #8DAAD5",
"}. c #A4BCD7",
"|. c #C89DC8",
" X c #D899C3",
".X c #E59AC4",
"XX c #F799C1",
"oX c #C2BFC6",
"OX c #C3A2CA",
"+X c #F2BDC9",
"@X c #92CCF1",
"#X c #A9CFEB",
"$X c #BFD1E5",
"%X c #C3C3C4",
"&X c #CCCBCC",
"*X c #CFC6CA",
"=X c #D3D3D3",
"-X c #DCDCDC",
";X c #D0CED4",
":X c #E2DDDA",
">X c #EBC5D5",
",X c #CDD5E5",
"<X c #D8E8F3",
"1X c #E3E3E3",
"2X c #ECECEC",
"3X c #E4EDF5",
"4X c #F4F4F4",
"5X c #F9F6F6",
"6X c #FEFEFE",
"7X c #F6F8F9",
"8X c #EDF3F8",
/* pixels */
"                        Q.Q.~.~.^.P.M ).                        ",
"                  OX X.XQ.Q.Q.Q.I.I.M M N N C                   ",
"              '.].].[.|. X.XW.W.H.G.G.v m j k V Z               ",
"            _.`.`.'.'.].n.b.Y.' W.( > & @ g j k C Z             ",
"          _.`.6.5.6.6.6._.x.n.n.^ # a.g.g.* v j l C C           ",
"        x._.6.5.8.8.8.5.6.6._.W + a.m.N.B.x n v m k V C         ",
"      W x._.6.5.4.3.3.$.o.S D o % m.V.C.F.) G.D.M m k B C       ",
"      v.U H S S S D D o O H s.g.z.Z.%X%XU # : S.n v h k B V     ",
"    7X1XC.M.g.a.a.s.j.g.h.M.B.N.C.%X=XC.C.V.U $ > n v h k a     ",
"    6X2X-X%XV.B.B.B.N.V.C.C.C.%X&X=X1X1X-X%Xx.d.% ; S.b h k a   ",
"  6X6X5X2X=X%X%X%X%X%X&X&X&X=X-X-X1X2X4X2XA.*.E j.q % c v h k   ",
"  6X6X7X2X-X-X=X;X=X=X=X-X-X1X1X2X2X7X6X7X:Xf.O h.N.s.& c v h   ",
"  6X6X6X4X2X1X1X1X1X1X2X2X2X2X4X4X7X6X6X6X2X&XN.V.%XV.j.& n v h ",
"6X6X6X6X6X7X4X4X4X8X4X4X7X7X6X6X6X6X6X6X6X4X1X=X&X=X&XZ.d.& c b ",
"6X6X6X6X6X6X6X6X7X6X6X6X6X6X6X6X6X6X6X6X6X7X4X1X1X1X:X=XZ.d.x n ",
"6X6X6X6X6X6X6X6X6X6X6X6X6X4X3X<X<X<X3X8X7X7X4X2X2X2X2X1X*XF.( c ",
"6X6X6X6X6X6X6X6X6X7X2X,X}.e.w.u.y.i.i.p.p.@X@X#X#X$X,X,X|.^ ( S.",
"6X6X6X6X6X6X6X2X:X*XZ.A.X.$.>.1.1.2.0.r.y.y.y.y.t.w.{.'.v.U.^ ~ ",
"6X6X6X6X6X6X6X6X7X4X2X1X&XM.H +.=.<.<.1.0.0.t.t.t.u.e.{.'.n._ ^ ",
"  6X6X6X6X6X7X4X5X5X4X4X1X;XC.m.H A ;.<.,.1.0.0.0.u.q.5.c.l.Y T ",
"  6X6X6X6X:XL.P././.+X>X>X;X}.C.N.j.A ,.;.;.;.1.7.2.7.4.*.&.I   ",
"  6X6X6X7Xz k K.P.^.~.Q.XX.X|.x.z.Z.F =.=.=.=.=.| ....} $.%.E   ",
"    6X6X=Xi a l ).P.^.~.Q.Q.T.W j.%Xc...=.=.| | |  .[ { o.@.K   ",
"    6X6X(.u i p j J.J.I.~.!.` T I %Xj.o.} { [  . .[ [ { +.#.    ",
"      6Xz 8 u i s t g b S.S.H.H.U.b.l.%.%.o.] { [ [ { { +.#.    ",
"      7Xk.4 8 6 y e t g f S.F.!.!.E.n.I G L @.o.+.] ] O.+.      ",
"        j.< 2 4 8 y e w d f F.G.I.E.U.Y I P G @.@.#.o.o.        ",
"          7 7 . < 4 y 9 e r d f S.S.^ ! R I P G X.%.@.          ",
"            j.7 2 2 3 y 9 w q * = - : ! ! R Y I P G             ",
"              5 1 3 2 3 0 0 w q d = = > Q Q ! R I               ",
"                  < 1 2 2 1 9 w q r * - > : Q                   ",
"                        1 1 1 0 9 q d d                         "
};
